# xmcd
#
# Track frame offsets: 
#        150
#        15886
#        31092
#        48678
#        63548
#        80292
#        96006
#        114345
#        129287
#        146857
#        161116
#        175358
#        186485
#        200177
#        216728
#        234876
#        260454
#
# Disc length: 3871 seconds
#
# Revision: 3
# Processed by: cddbd v1.5.2PL0 Copyright (c) Steve Scherf et al.
# Submitted via: ExactAudioCopyFreeDBPlugin 1.0
#
DISCID=f50f1d11
DTITLE=Féfé - Jeune à la Retraite (Reissue)
DYEAR=2009
DGENRE=Hip-Hop
TTITLE0=Jeune à la retraite
TTITLE1=Clichés
TTITLE2=Dans ma rue
TTITLE3=Mes héros
TTITLE4=C'est comme ça
TTITLE5=Miss wesh wesh yo
TTITLE6=Cherche (ft Sir Samuel)
TTITLE7=Pause
TTITLE8=VPC (Vilain Petit Canard)
TTITLE9=Ride home (ft Patrice)
TTITLE10=Etre père
TTITLE11=Le Féfé
TTITLE12=Mes vérités
TTITLE13=Garçon
TTITLE14=VPC Rudeboy (remix by Readymade FC)
TTITLE15=C'est comme ça (remix by Birdy Nam Nam)
TTITLE16=DATA
EXTD=YEAR: 2009
EXTT0=
EXTT1=
EXTT2=
EXTT3=
EXTT4=
EXTT5=
EXTT6=
EXTT7=
EXTT8=
EXTT9=
EXTT10=
EXTT11=
EXTT12=
EXTT13=
EXTT14=
EXTT15=
EXTT16=
PLAYORDER=
